<svg xmlns="http://www.w3.org/2000/svg" width="496" height="496" viewBox="0 0 496 496" fill="none">
<g clip-path="url(#clip0_2173_12232)">
<mask id="mask0_2173_12232" style="mask-type:alpha" maskUnits="userSpaceOnUse" x="-1" y="-24" width="496" height="496">
<rect x="-1.00006" y="-24" width="496" height="496" fill="#D9D9D9"/>
</mask>
<g mask="url(#mask0_2173_12232)">
<path d="M212.876 24.6061C235.93 23.0531 258.984 24.5043 280.524 28.7307C300.243 32.6007 319.644 40.5189 335.327 53.2745C352.882 67.5578 359.973 86.1057 366.924 107.11C379.603 145.377 395.579 170.736 427.812 195.649C448.893 211.944 472.164 228.607 484.118 253.24C497.293 280.381 498.286 313.811 488.281 342.072C458.415 426.32 365.001 425.493 290.657 429.082C245.567 431.259 200.375 431.119 155.297 428.535C115.973 426.282 69.8774 426.855 35.3786 405.277C-12.4233 375.386 -10.4374 310.564 25.7291 272.705C43.8187 253.775 61.7173 231.854 67.3695 205.629C70.272 192.186 69.4445 178.336 65.2309 165.262C58.0001 142.844 47.7141 127.084 59.9606 103.61C87.9542 49.9265 156.735 28.387 212.876 24.6061Z" fill="#354570"/>
<path d="M445.291 158.935C445.125 158.808 444.947 158.681 444.781 158.553C440.695 155.587 435.679 154.047 430.791 154.518C428.016 154.785 425.406 155.944 424.591 158.935C423.815 161.812 424.604 165.033 426.144 167.528C428.016 170.571 430.867 172.798 433.719 174.848C436.685 176.999 439.702 179.049 442.783 180.984C444.221 181.888 445.685 182.766 447.289 183.224C448.893 183.683 450.675 183.67 452.114 182.842C453.667 181.939 454.635 180.169 454.966 178.336C455.424 175.777 454.8 173.117 453.858 170.672C452.076 166.064 449.122 161.901 445.291 158.948V158.935Z" fill="#354570"/>
<path d="M334.856 81.6372H96.8017C89.068 81.6372 82.7985 87.9067 82.7985 95.6404V262.406C82.7985 270.14 89.068 276.409 96.8017 276.409H334.856C342.59 276.409 348.859 270.14 348.859 262.406V95.6404C348.859 87.9067 342.59 81.6372 334.856 81.6372Z" fill="#D7E9FF"/>
<path d="M348.859 95.6404V105.825H82.7985V95.6404C82.7985 87.9005 89.0618 81.6372 96.8017 81.6372H334.856C342.596 81.6372 348.859 87.9005 348.859 95.6404Z" fill="#4097FF"/>
<path d="M300.485 146.23C300.485 150.635 299.364 154.785 297.379 158.4C294.069 164.498 288.327 169.081 281.466 170.863C279.404 171.411 277.252 171.691 275.024 171.691C269.359 171.691 264.127 169.832 259.901 166.713C255.458 163.429 252.135 158.757 250.57 153.321C249.908 151.068 249.564 148.687 249.564 146.23C249.564 132.163 260.957 120.77 275.024 120.77C289.091 120.77 300.485 132.163 300.485 146.23Z" fill="#0B2B61"/>
<path d="M282.026 154.505L281.466 170.863C279.403 171.411 277.252 171.691 275.024 171.691C269.359 171.691 264.127 169.832 259.901 166.713C255.458 163.429 252.135 158.757 250.57 153.321L260.677 145.237C264.496 142.182 270.009 142.488 273.458 145.938L278.856 151.335L282.026 154.505Z" fill="#B1D4FF"/>
<path d="M297.379 158.4C294.069 164.498 288.327 169.081 281.466 170.863C279.404 171.411 277.252 171.691 275.024 171.691C269.359 171.691 264.127 169.832 259.901 166.713L278.5 151.602C278.614 151.513 278.729 151.424 278.856 151.335C282.65 148.573 287.933 148.955 291.281 152.303L297.379 158.4Z" fill="#4097FF"/>
<path d="M290.301 144.957C293.113 144.957 295.393 142.677 295.393 139.865C295.393 137.053 293.113 134.773 290.301 134.773C287.488 134.773 285.209 137.053 285.209 139.865C285.209 142.677 287.488 144.957 290.301 144.957Z" fill="#B1D4FF"/>
<path d="M270.671 253.24H248.609C247.906 253.24 247.336 253.81 247.336 254.513V259.886C247.336 260.589 247.906 261.159 248.609 261.159H270.671C271.374 261.159 271.944 260.589 271.944 259.886V254.513C271.944 253.81 271.374 253.24 270.671 253.24Z" fill="white"/>
<path d="M299.95 253.24H277.888C277.185 253.24 276.615 253.81 276.615 254.513V259.886C276.615 260.589 277.185 261.159 277.888 261.159H299.95C300.653 261.159 301.223 260.589 301.223 259.886V254.513C301.223 253.81 300.653 253.24 299.95 253.24Z" fill="white"/>
<path d="M315.022 188.24H233.549C232.846 188.24 232.276 188.81 232.276 189.513V198.424C232.276 199.127 232.846 199.697 233.549 199.697H315.022C315.725 199.697 316.295 199.127 316.295 198.424V189.513C316.295 188.81 315.725 188.24 315.022 188.24Z" fill="white"/>
<path d="M315.022 203.516H233.549C232.846 203.516 232.276 204.086 232.276 204.789V213.7C232.276 214.404 232.846 214.974 233.549 214.974H315.022C315.725 214.974 316.295 214.404 316.295 213.7V204.789C316.295 204.086 315.725 203.516 315.022 203.516Z" fill="white"/>
<path d="M232.276 179.329H250.098" stroke="white" stroke-width="2" stroke-miterlimit="10"/>
<path d="M315.022 236.615H233.549C232.846 236.615 232.276 237.185 232.276 237.888V246.799C232.276 247.502 232.846 248.072 233.549 248.072H315.022C315.725 248.072 316.295 247.502 316.295 246.799V237.888C316.295 237.185 315.725 236.615 315.022 236.615Z" fill="white"/>
<path d="M232.276 227.704H250.098" stroke="white" stroke-width="2" stroke-miterlimit="10"/>
<path d="M198.643 163.594H110.805V218.334H198.643V163.594Z" fill="#4097FF"/>
<path d="M178.3 210.569C176.786 212.988 176.836 215.699 177.549 218.334H110.805V183.326C113.987 179.507 118.443 176.325 123.535 178.871C126.489 180.347 129.493 182.27 131.899 184.536C137.284 189.615 142.35 190.977 149.721 189.819C153.553 189.22 158.301 187.565 162.133 188.813C166.894 190.366 166.028 195.827 168.269 199.328C169.211 200.792 170.713 201.836 172.317 202.523C174.278 203.364 178.097 203.3 179.357 205.286C180.401 206.941 179.192 209.143 178.3 210.569Z" fill="#66ABFF"/>
<path d="M198.643 163.595V191.092C193.717 194.198 187.25 194.198 184.487 187.769C183.304 185.019 183.469 181.76 181.992 179.151C180.656 176.783 178.161 175.306 175.665 174.211C172.432 172.811 169.288 171.64 166.436 169.501C164.934 168.368 163.483 166.981 162.961 165.16C162.821 164.677 162.821 164.142 162.91 163.595H198.643Z" fill="#8AC0FF"/>
<path d="M382.594 150.304H338.039C332.414 150.304 327.854 154.864 327.854 160.488V199.634C327.854 205.258 332.414 209.818 338.039 209.818H382.594C388.219 209.818 392.778 205.258 392.778 199.634V160.488C392.778 154.864 388.219 150.304 382.594 150.304Z" fill="#ADD361"/>
<path d="M152.815 71.4531H77.7065C72.0819 71.4531 67.5223 76.0127 67.5223 81.6373V131.285C67.5223 136.91 72.0819 141.469 77.7065 141.469H152.815C158.439 141.469 162.999 136.91 162.999 131.285V81.6373C162.999 76.0127 158.439 71.4531 152.815 71.4531Z" fill="#99C939"/>
<path d="M140.084 106.461C140.084 112.126 138.2 117.345 135.018 121.521C130.486 127.453 123.331 131.285 115.26 131.285C107.189 131.285 100.035 127.453 95.5285 121.521C92.3205 117.345 90.4365 112.126 90.4365 106.461C90.4365 92.7508 101.55 81.6373 115.26 81.6373C128.971 81.6373 140.084 92.7508 140.084 106.461Z" fill="white"/>
<path d="M162.999 81.6373V121.61H156.048C148.563 121.61 142.49 115.551 142.49 108.065V71.4531H152.814C158.441 71.4531 162.999 76.0105 162.999 81.6373Z" fill="#7BA809"/>
<path d="M231.602 47.775H156.494C150.869 47.775 146.31 52.3346 146.31 57.9592V107.607C146.31 113.231 150.869 117.791 156.494 117.791H231.602C237.226 117.791 241.786 113.231 241.786 107.607V57.9592C241.786 52.3346 237.226 47.775 231.602 47.775Z" fill="#ADD361"/>
<path d="M216.084 82.783C216.084 87.8114 214.416 92.4325 211.59 96.1497C207.567 101.42 201.215 104.819 194.06 104.819C186.906 104.819 180.554 101.42 176.544 96.1497C173.705 92.4452 172.024 87.8114 172.024 82.783C172.024 70.6129 181.878 60.7598 194.048 60.7598C206.218 60.7598 216.071 70.6129 216.071 82.783H216.084Z" fill="white"/>
<path d="M211.577 96.1499C207.554 101.42 201.202 104.819 194.048 104.819C186.893 104.819 180.541 101.42 176.531 96.1499C179.026 91.8216 185.913 88.7154 194.048 88.7154C202.182 88.7154 209.057 91.8216 211.577 96.1499Z" fill="#C1DE86"/>
<path d="M194.048 86.0165C198.864 86.0165 202.768 82.1123 202.768 77.2963C202.768 72.4803 198.864 68.5761 194.048 68.5761C189.232 68.5761 185.327 72.4803 185.327 77.2963C185.327 82.1123 189.232 86.0165 194.048 86.0165Z" fill="#C1DE86"/>
<path d="M360.317 174.962C363.832 174.962 366.682 172.113 366.682 168.597C366.682 165.082 363.832 162.232 360.317 162.232C356.801 162.232 353.951 165.082 353.951 168.597C353.951 172.113 356.801 174.962 360.317 174.962Z" fill="white"/>
<path d="M351.405 180.055H369.228" stroke="white" stroke-width="2" stroke-miterlimit="10"/>
<path d="M338.675 191.512H381.958" stroke="white" stroke-width="2" stroke-miterlimit="10"/>
<path d="M338.675 197.877H381.958" stroke="white" stroke-width="2" stroke-miterlimit="10"/>
<mask id="mask1_2173_12232" style="mask-type:luminance" maskUnits="userSpaceOnUse" x="90" y="81" width="51" height="51">
<path d="M140.084 106.461C140.084 112.126 138.2 117.345 135.018 121.521C130.486 127.453 123.331 131.285 115.26 131.285C107.19 131.285 100.035 127.453 95.5287 121.521C92.3207 117.345 90.4366 112.126 90.4366 106.461C90.4366 92.7507 101.55 81.6372 115.26 81.6372C128.971 81.6372 140.084 92.7507 140.084 106.461Z" fill="white"/>
</mask>
<g mask="url(#mask1_2173_12232)">
<path d="M125.305 101.433L135.349 107.174V130.127L125.305 134.442L123.866 101.433H125.305Z" fill="#C1DE86"/>
<path d="M125.304 94.2657H103.778V135.868H125.304V94.2657Z" fill="#99C939"/>
<path d="M119.919 101.433H117.768V130.127H119.919V101.433Z" fill="#ADD361"/>
<path d="M111.314 101.433H109.162V130.127H111.314V101.433Z" fill="#ADD361"/>
<path d="M112.383 105.736H95.1721V135.868H112.383V105.736Z" fill="#D5E8AE"/>
<path d="M131.046 110.051H129.607V124.398H131.046V110.051Z" fill="#ADD361"/>
<path d="M100.2 112.203H107.368" stroke="#ADD361" stroke-width="1.13" stroke-miterlimit="10"/>
<path d="M100.2 115.067H107.368" stroke="#ADD361" stroke-width="1.13" stroke-miterlimit="10"/>
<path d="M107.38 117.931H100.2V130.839H107.38V117.931Z" fill="#ADD361"/>
</g>
<path d="M226.65 68.9072H229.832" stroke="#0B2B61" stroke-width="2" stroke-miterlimit="10" stroke-linecap="round"/>
<path d="M235.828 68.9071H268.837" stroke="#0B2B61" stroke-width="2" stroke-miterlimit="10" stroke-linecap="round"/>
<path d="M271.842 68.9071H275.024V72.0897" stroke="#0B2B61" stroke-width="2" stroke-miterlimit="10" stroke-linecap="round"/>
<path d="M275.024 79.4732V105.315" stroke="#0B2B61" stroke-width="2" stroke-miterlimit="10" stroke-linecap="round"/>
<path d="M275.024 109.007V112.19" stroke="#0B2B61" stroke-width="2" stroke-miterlimit="10" stroke-linecap="round"/>
<path d="M359.044 216.578V219.76" stroke="#0B2B61" stroke-width="2" stroke-miterlimit="10" stroke-linecap="round"/>
<path d="M359.044 225.705V234.616" stroke="#0B2B61" stroke-width="2" stroke-miterlimit="10" stroke-linecap="round"/>
<path d="M359.044 237.582V240.765H355.861" stroke="#0B2B61" stroke-width="2" stroke-miterlimit="10" stroke-linecap="round"/>
<path d="M350.769 240.765H332.947" stroke="#0B2B61" stroke-width="2" stroke-miterlimit="10" stroke-linecap="round"/>
<path d="M330.401 240.765H327.218" stroke="#0B2B61" stroke-width="2" stroke-miterlimit="10" stroke-linecap="round"/>
<path d="M326.377 393.552V429.604H296.258V393.552C296.258 391.961 297.556 390.675 299.135 390.675H323.488C325.079 390.675 326.365 391.974 326.365 393.552H326.377Z" fill="#B1D4FF"/>
<path d="M296.627 423.43C296.232 423.201 286.99 417.791 286.163 408.307C285.844 404.691 287.219 402.451 288.416 401.203C291.726 397.792 297.225 397.982 297.836 398.021L297.594 402.425C296.474 402.374 293.19 402.604 291.573 404.284C290.746 405.15 290.415 406.333 290.555 407.925C291.178 415.143 298.74 419.56 298.817 419.611L296.627 423.43Z" fill="#F3BC85"/>
<path d="M286.163 408.294C286.901 416.823 294.463 422.068 296.258 423.188V429.592H312.298C311.343 428.955 308.212 426.307 304.698 417.281C300.663 406.919 300.141 392.547 300.103 390.663H299.135C297.544 390.663 296.258 391.961 296.258 393.54V398.021C294.234 398.173 290.784 398.772 288.429 401.191C287.22 402.438 285.857 404.679 286.163 408.281V408.294ZM291.586 404.271C292.757 403.062 294.807 402.591 296.258 402.464V417.714C293.979 415.779 290.95 412.38 290.555 407.912C290.428 406.321 290.746 405.137 291.586 404.271Z" fill="#F3BC85"/>
<path d="M286.163 408.294C286.901 416.823 294.463 422.068 296.258 423.188V429.592H312.298C311.343 428.955 308.212 426.307 304.698 417.281C300.663 406.919 300.141 392.547 300.103 390.663H299.135C297.544 390.663 296.258 391.961 296.258 393.54V398.021C294.234 398.173 290.784 398.772 288.429 401.191C287.22 402.438 285.857 404.679 286.163 408.281V408.294ZM291.586 404.271C292.757 403.062 294.807 402.591 296.258 402.464V417.714C293.979 415.779 290.95 412.38 290.555 407.912C290.428 406.321 290.746 405.137 291.586 404.271Z" fill="#8AC0FF"/>
<path d="M332.043 429.121H288.849C288.448 429.121 288.123 429.445 288.123 429.846V430.623C288.123 431.024 288.448 431.348 288.849 431.348H332.043C332.443 431.348 332.768 431.024 332.768 430.623V429.846C332.768 429.445 332.443 429.121 332.043 429.121Z" fill="#F3BC85"/>
<g opacity="0.7">
<g style="mix-blend-mode:soft-light" opacity="0.7">
<path d="M332.043 429.121H288.849C288.448 429.121 288.123 429.445 288.123 429.846V430.623C288.123 431.024 288.448 431.348 288.849 431.348H332.043C332.443 431.348 332.768 431.024 332.768 430.623V429.846C332.768 429.445 332.443 429.121 332.043 429.121Z" fill="black"/>
</g>
</g>
<path d="M74.3583 393.756C80.7871 394.074 88.1069 391.363 92.4606 386.538C94.8412 383.89 96.3306 380.275 95.8469 376.749C95.134 371.517 90.3856 367.265 90.5638 361.982C90.7166 357.551 94.3447 353.949 95.2104 349.595C95.7705 346.795 95.0958 343.765 93.3899 341.473C92.2188 339.895 90.5511 338.558 90.1056 336.636C89.5836 334.37 90.9457 332.167 92.1042 330.156C93.3136 328.043 94.3702 325.764 94.5866 323.345C94.9685 319.132 92.4988 314.816 88.6798 312.996C84.8607 311.175 79.9596 311.99 76.9298 314.944C74.0273 317.77 73.0089 322.123 73.4799 326.146C73.7091 328.056 74.231 330.029 73.6582 331.862C72.9071 334.255 70.5647 335.706 68.9098 337.591C67.0639 339.704 66.071 342.543 66.1728 345.343C66.2874 348.488 67.7259 351.606 67.0257 354.662C66.4274 357.233 64.4542 359.194 62.6593 361.141C60.0496 363.967 57.6563 367.099 56.3578 370.727C53.5063 378.696 56.727 388.219 63.9705 392.649C67.2039 394.635 71.4049 395.258 74.8421 393.654" fill="#02174C"/>
<path d="M78.6609 406.168C78.3172 406.168 78.0117 405.939 77.9226 405.595C77.8589 405.353 71.9012 381.37 82.429 326.605C82.5054 326.184 82.9128 325.917 83.3329 325.993C83.753 326.07 84.0203 326.477 83.9439 326.897C73.4925 381.255 79.3483 404.984 79.412 405.213C79.5138 405.621 79.272 406.041 78.8646 406.155C78.801 406.168 78.7373 406.181 78.6736 406.181L78.6609 406.168Z" fill="#02174C"/>
<path d="M67.3569 393.578C67.3569 393.578 74.6003 356.584 53.3918 345.089C47.9306 342.135 39.0449 341.333 33.7873 345.19C29.2427 348.526 28.0333 354.305 28.9626 359.614C29.9683 365.419 33.9274 369.785 38.2429 373.502C38.2429 373.502 57.1982 389.848 56.9818 401.662L67.3696 393.565L67.3569 393.578Z" fill="#02174C"/>
<path d="M61.6154 399.701C61.6154 399.701 61.5645 399.701 61.5263 399.701C60.9916 399.65 60.597 399.179 60.6352 398.645C60.6606 398.415 62.4301 375.896 46.8993 361.129C46.5047 360.76 46.4919 360.136 46.8611 359.754C47.2303 359.359 47.8413 359.346 48.236 359.716C64.4542 375.132 62.5956 398.581 62.5702 398.81C62.5192 399.319 62.0991 399.701 61.6027 399.701H61.6154Z" fill="#02174C"/>
<path fill-rule="evenodd" clip-rule="evenodd" d="M90.6151 391.974C94.4978 396.722 96.5983 402.629 96.5983 408.765C96.5983 417.778 92.0536 426.116 84.5301 431.017C84.1737 431.247 83.8172 431.348 83.3971 431.348H56.6892C56.2691 431.348 55.9126 431.247 55.5562 431.017C48.0327 426.104 43.488 417.765 43.488 408.765C43.488 402.629 45.5885 396.722 49.4712 391.974C49.8785 391.477 50.4387 391.21 51.0752 391.21H88.9984C89.6476 391.21 90.195 391.477 90.6024 391.974H90.6151Z" fill="#02174C"/>
<g opacity="0.7">
<path d="M74.3583 393.756C80.7871 394.074 88.1069 391.363 92.4606 386.538C94.8412 383.89 96.3306 380.275 95.8469 376.749C95.134 371.517 90.3856 367.265 90.5638 361.982C90.7166 357.551 94.3447 353.949 95.2104 349.595C95.7705 346.795 95.0958 343.765 93.3899 341.473C92.2188 339.895 90.5511 338.558 90.1056 336.636C89.5836 334.37 90.9457 332.167 92.1042 330.156C93.3136 328.043 94.3702 325.764 94.5866 323.345C94.9685 319.132 92.4988 314.816 88.6798 312.996C84.8607 311.175 79.9596 311.99 76.9298 314.944C74.0273 317.77 73.0089 322.123 73.4799 326.146C73.7091 328.056 74.231 330.029 73.6582 331.862C72.9071 334.255 70.5647 335.706 68.9098 337.591C67.0639 339.704 66.071 342.543 66.1728 345.343C66.2874 348.488 67.7259 351.606 67.0257 354.662C66.4274 357.233 64.4542 359.194 62.6593 361.141C60.0496 363.967 57.6563 367.099 56.3578 370.727C53.5063 378.696 56.727 388.219 63.9705 392.649C67.2039 394.635 71.4049 395.258 74.8421 393.654" fill="#ADD361"/>
<path d="M78.6609 406.168C78.3172 406.168 78.0117 405.939 77.9226 405.595C77.8589 405.353 71.9012 381.37 82.429 326.605C82.5054 326.184 82.9128 325.917 83.3329 325.993C83.753 326.07 84.0203 326.477 83.9439 326.897C73.4925 381.255 79.3483 404.984 79.412 405.213C79.5138 405.621 79.272 406.041 78.8646 406.155C78.801 406.168 78.7373 406.181 78.6736 406.181L78.6609 406.168Z" fill="#D5E8AE"/>
<path d="M67.3569 393.578C67.3569 393.578 74.6003 356.584 53.3918 345.089C47.9306 342.135 39.0449 341.333 33.7873 345.19C29.2427 348.526 28.0333 354.305 28.9626 359.614C29.9683 365.419 33.9274 369.785 38.2429 373.502C38.2429 373.502 57.1982 389.848 56.9818 401.662L67.3696 393.565L67.3569 393.578Z" fill="#C1DE86"/>
<path d="M61.6154 399.701C61.6154 399.701 61.5645 399.701 61.5263 399.701C60.9916 399.65 60.597 399.179 60.6352 398.645C60.6606 398.415 62.4301 375.896 46.8993 361.129C46.5047 360.76 46.4919 360.136 46.8611 359.754C47.2303 359.359 47.8413 359.346 48.236 359.716C64.4542 375.132 62.5956 398.581 62.5702 398.81C62.5192 399.319 62.0991 399.701 61.6027 399.701H61.6154Z" fill="#E9F3D5"/>
<path fill-rule="evenodd" clip-rule="evenodd" d="M90.6151 391.974C94.4978 396.722 96.5983 402.629 96.5983 408.765C96.5983 417.778 92.0536 426.116 84.5301 431.017C84.1737 431.247 83.8172 431.348 83.3971 431.348H56.6892C56.2691 431.348 55.9126 431.247 55.5562 431.017C48.0327 426.104 43.488 417.765 43.488 408.765C43.488 402.629 45.5885 396.722 49.4712 391.974C49.8785 391.477 50.4387 391.21 51.0752 391.21H88.9984C89.6476 391.21 90.195 391.477 90.6024 391.974H90.6151Z" fill="#F6AA80"/>
</g>
<path opacity="0.5" d="M304.418 385.698C307.117 385.252 310.236 384.145 312.247 382.261C319.822 375.183 305.844 362.503 305.271 354.789C305.093 352.345 305.551 349.799 306.901 347.749C308.632 345.114 311.662 343.548 314.755 342.899C318.32 342.148 322.381 342.237 325.996 342.695C334.742 343.803 341.145 344.936 349.47 341.295C357.096 337.96 363.474 332.002 366.147 323.982C366.147 323.982 366.147 343.854 366.147 343.892C366.147 347.444 360.953 351.034 358.394 352.943C348.656 360.199 337.211 359.181 326.492 354.764C324.761 354.051 322.966 353.35 321.082 353.338C318.46 353.312 316.207 355.056 315.074 357.36C313.902 359.741 314.119 362.605 315.048 365.075C316.627 369.238 320.026 373.846 319.516 378.505C318.727 385.851 309.663 384.832 304.418 385.711V385.698Z" fill="#D7E9FF"/>
<path opacity="0.5" d="M320.344 383.712C323.055 379.906 322.992 376.061 322.33 371.771C325.958 375.03 325.27 382.134 320.344 383.712Z" fill="#D7E9FF"/>
<path opacity="0.5" d="M326.314 361.803C331.585 364.884 337.708 365.775 343.615 364.375C344.48 364.209 345.321 363.942 346.224 363.789C345.512 364.337 344.748 364.859 343.946 365.292C338.268 368.36 330.197 367.176 326.314 361.803Z" fill="#D7E9FF"/>
<path d="M401.766 331.645L432.51 389.708C436.621 397.473 436.736 406.754 432.802 414.621L426.641 426.956" stroke="white" stroke-width="8.14" stroke-miterlimit="10"/>
<path d="M401.766 331.645L432.51 389.708C436.621 397.473 436.736 406.754 432.802 414.621L426.641 426.956" stroke="#0B2B61" stroke-width="8.14" stroke-miterlimit="10"/>
<path d="M385.191 259.121L405.394 321.563C407.087 326.795 407.278 332.396 405.929 337.718L390.513 399.115L376.904 267.409L385.191 259.121Z" fill="white"/>
<path d="M385.191 259.121L405.394 321.563C407.087 326.795 407.278 332.396 405.929 337.718L390.513 399.115L376.904 267.409L385.191 259.121Z" fill="#4097FF"/>
<path d="M453.922 422.806H360.457C358.095 422.806 356.18 424.721 356.18 427.084C356.18 429.446 358.095 431.361 360.457 431.361H453.922C456.284 431.361 458.199 429.446 458.199 427.084C458.199 424.721 456.284 422.806 453.922 422.806Z" fill="#8AC0FF"/>
<path d="M386.174 258.633C385.853 251.772 380.033 246.47 373.175 246.791C366.317 247.112 361.018 252.934 361.339 259.796L367.636 394.309C367.957 401.17 373.777 406.472 380.635 406.151C387.493 405.83 392.792 400.008 392.471 393.146L386.174 258.633Z" fill="white"/>
<path d="M373.169 246.791C380.023 246.471 385.853 251.78 386.174 258.634L392.439 392.485C392.777 399.708 387.19 405.857 379.955 406.196C373.469 406.499 367.958 401.481 367.655 394.996L361.326 259.797C361.005 252.943 366.314 247.112 373.169 246.791Z" fill="#8AC0FF"/>
<path d="M392.461 393.132C392.792 399.994 387.483 405.811 380.634 406.142C379.349 406.206 378.126 406.053 376.943 405.773C382.531 404.322 386.541 399.128 386.248 393.132L379.947 258.599C379.68 253.011 375.797 248.466 370.641 247.142C371.443 246.939 372.296 246.811 373.174 246.773C373.365 246.773 373.569 246.748 373.76 246.748C380.367 246.748 385.854 251.929 386.172 258.599L392.473 393.132H392.461Z" fill="#0B2B61"/>
<mask id="mask2_2173_12232" style="mask-type:luminance" maskUnits="userSpaceOnUse" x="95" y="231" width="209" height="200">
<path d="M303.031 231.854H95.5286V430.444H303.031V231.854Z" fill="white"/>
</mask>
<g mask="url(#mask2_2173_12232)">
<path d="M295.163 270.439L283.528 310.093L272.669 309.202L271.816 309.138L267.997 308.82L278.741 270.922L295.163 270.439Z" fill="#4097FF"/>
<g opacity="0.8">
<g style="mix-blend-mode:soft-light" opacity="0.7">
<path d="M277.252 295.084C277.048 295.721 276.73 296.319 276.411 296.93C275.8 298.063 275.164 299.196 274.515 300.316C274.222 300.813 273.929 301.297 273.84 301.844C273.751 302.353 273.84 302.85 273.903 303.359C274.145 305.141 274.069 306.962 273.662 308.718C273.534 309.304 273.356 309.89 272.961 310.348L271.994 310.271C271.994 310.271 271.943 310.17 271.905 310.119C271.179 308.553 271.039 306.796 270.721 305.103C270.568 304.301 270.352 303.524 270.339 302.71C270.301 300.596 271.497 298.674 272.363 296.714C273.063 295.135 273.534 293.48 273.967 291.8C274.234 290.769 274.565 289.61 275.558 289.101L275.928 288.974C277.404 290.629 277.913 293.022 277.226 295.097L277.252 295.084Z" fill="black"/>
</g>
</g>
<path d="M282.217 314.434C281.847 314.765 281.466 315.084 281.071 315.376C280.065 316.115 278.97 317.044 278.538 318.253C277.901 320.036 262.205 366.87 262.205 366.87C262.205 366.87 262.09 367.265 261.848 367.965C259.875 373.719 249.462 400.134 227.464 394.329L232.849 364.184C232.849 364.184 233.116 364.146 233.676 363.866C235.561 362.885 240.703 358.977 249.615 343.37C261.174 323.129 266.953 315.236 266.953 315.236C266.953 315.236 265.604 304.174 266.431 300.329C267.271 296.472 274.566 287.714 274.566 287.714C274.566 287.714 277.888 291.036 274.248 296.994L271.536 301.475C271.536 301.475 273.42 303.143 272.593 307.827L272.274 309.088L279.263 308.146L282.7 306.058L284.164 302.201L287.194 299.387C287.131 299.438 287.283 300.151 287.283 300.24C287.347 301.004 287.347 301.768 287.309 302.532C287.181 305.027 286.583 307.484 285.527 309.75C285.055 310.743 284.495 311.697 283.859 312.601C283.388 313.263 282.828 313.874 282.229 314.434H282.217Z" fill="#C97E63"/>
<g opacity="0.8">
<g style="mix-blend-mode:soft-light" opacity="0.7">
<path d="M272.3 309.1C274.999 309.979 278.207 311.137 280.982 311.557C281.224 311.595 281.466 311.621 281.682 311.519C281.924 311.392 282.064 311.112 282.191 310.857C283.006 309.126 283.592 307.254 283.923 305.345C283.974 305.052 283.999 304.696 283.795 304.492C283.643 304.339 283.401 304.352 283.21 304.416C282.675 304.581 282.255 305.027 281.822 305.434C280.333 306.847 278.461 307.776 276.514 308.069C275.19 308.273 273.611 307.878 272.618 308.871" fill="black"/>
</g>
</g>
<path d="M272.3 309.1L281.249 310.322L285.157 300.227L276.144 303.716L272.3 309.1Z" fill="#4097FF"/>
<g opacity="0.8">
<g style="mix-blend-mode:soft-light" opacity="0.7">
<path d="M261.848 367.977C259.875 373.732 249.462 400.147 227.464 394.342L232.849 364.197C232.849 364.197 233.116 364.158 233.676 363.878C233.74 366.895 233.855 369.9 233.931 372.955C234.097 378.162 235.866 384.629 242.244 384.781C247.451 384.909 252.492 380.402 255.751 376.761C258.144 374.101 260.143 371.109 261.848 367.965V367.977Z" fill="black"/>
</g>
</g>
<path d="M291.242 286.402C290.478 290.412 288.034 302.608 286.418 304.339C285.577 305.243 283.782 305.523 282.026 305.574C279.683 305.625 277.914 303.448 278.499 301.169L278.69 300.431L281.198 290.616C282.115 287.013 285.501 284.607 289.218 284.938L290.211 285.027C290.58 285.053 290.899 285.257 291.09 285.562C291.242 285.804 291.306 286.11 291.255 286.415L291.242 286.402Z" fill="#C97E63"/>
<g opacity="0.8">
<g style="mix-blend-mode:soft-light" opacity="0.7">
<path d="M291.242 286.402C290.478 290.412 288.034 302.608 286.418 304.339C285.577 305.243 283.782 305.523 282.026 305.574C279.683 305.625 277.914 303.448 278.499 301.169L278.69 300.431C280.294 300.775 282.038 300.405 283.464 299.565C285.145 298.572 286.405 296.994 287.334 295.275C288.251 293.557 288.849 291.685 289.435 289.827C289.766 288.77 290.097 287.726 290.44 286.657C290.58 286.262 290.771 285.804 291.09 285.549C291.242 285.791 291.306 286.097 291.255 286.402H291.242Z" fill="black"/>
</g>
</g>
<path d="M167.263 293.417C166.907 293.735 164.233 291.495 164.004 291.304C161.28 288.936 159.358 285.753 158.046 282.418C156.824 279.312 156.111 276.015 155.717 272.718C155.22 268.568 154.673 263.794 156.213 259.809C157.575 256.308 160.261 254.793 163.317 252.999C162.451 251.802 161.929 248.861 162.247 247.41C162.858 244.571 165.939 243.171 168.587 243.12C172.495 243.056 176.34 243.515 180.222 242.827C182.896 242.356 185.518 241.58 188.026 240.523C190.19 239.606 192.163 238.257 194.429 237.595C197.917 236.564 202.22 236.971 203.328 241.058C203.328 241.058 203.85 242.814 202.602 245.411C201.355 248.008 202.08 249.46 203.226 249.765C204.372 250.071 203.951 251.738 203.951 251.738L207.783 256.397C207.783 256.397 167.263 293.391 167.25 293.404L167.263 293.417Z" fill="#0A060A"/>
<path d="M189.719 302.099L185.251 318.457L183.291 325.663L156.659 320.991C156.659 320.66 168.345 287.587 168.345 287.587L178.479 284.213L186.155 296.421L189.719 302.099Z" fill="#C77E63"/>
<g opacity="0.7">
<g style="mix-blend-mode:soft-light" opacity="0.7">
<path d="M189.72 302.099L185.251 318.457L169.02 289.993L186.155 296.421L189.72 302.099Z" fill="black"/>
</g>
</g>
<path d="M206.37 266.085C206.396 267.677 206.383 269.306 206.345 270.897C206.179 278.166 205.505 285.002 205.505 285.002C203.952 294.486 199 300.177 196.059 302.812C194.646 304.085 192.698 304.543 190.839 304.098C179.535 301.412 168.434 289.725 168.434 289.725L163.724 276.995L161.305 267.727L171.604 252.935L186.626 249.154L204.69 250.809L204.983 255.456C205.925 257.62 206.294 261.681 206.37 266.085Z" fill="#C77E63"/>
<path d="M167.467 278.179C167.467 278.179 171.719 283.564 174.621 278.281C175.958 275.849 176.009 272.807 175.869 270.121C175.716 267.295 175.792 263.781 174.087 261.375C172.915 259.72 171.26 258.676 171.579 256.41C171.859 254.424 173.476 252.655 175.385 252.095C177.791 251.395 180.401 252.604 182.781 252.96C187.402 253.648 191.26 253.368 195.677 252.006C197.943 251.305 200.807 251.484 202.615 252.986C206.027 255.812 205.925 260.089 205.925 260.089C205.925 260.089 213.499 251.433 205.314 249.052L201.38 248.225L191.743 247.194L180.757 248.339L169.669 252.388L163.864 258.918L158.887 268.147L159.51 276.651L164.488 282.558L167.492 278.204L167.467 278.179Z" fill="#0A060A"/>
<path d="M169.478 280.336C169.233 278.241 167.339 276.741 165.248 276.985C163.156 277.23 161.659 279.127 161.904 281.221L162.59 287.088C162.835 289.183 164.73 290.683 166.821 290.439C168.912 290.194 170.409 288.298 170.164 286.203L169.478 280.336Z" fill="#C77E63"/>
<g opacity="0.7">
<g style="mix-blend-mode:soft-light" opacity="0.7">
<path d="M181.47 250.338C178.784 250.516 176.123 252.54 175.258 255.112C173.806 259.415 177.002 264.469 175.041 268.542C174.787 269.077 174.328 269.599 173.73 269.624C173.424 269.624 173.132 269.51 172.864 269.357C171.006 268.339 169.835 266.353 169.338 264.29C168.842 262.228 168.956 260.077 169.109 257.963C169.287 255.647 169.605 253.139 171.235 251.484C173.335 249.358 176.976 249.498 179.535 251.038" fill="black"/>
</g>
</g>
<g style="mix-blend-mode:soft-light" opacity="0.7">
<path d="M195.117 274.207C194.837 275.455 194.85 276.689 195.308 277.708C196.174 279.77 200.349 281.476 198.643 284.327C197.778 285.46 196.683 286.072 195.448 286.606C196.314 285.562 197.803 284.557 197.892 283.182C197.727 281.731 196.263 280.979 195.359 279.872C193.92 278.357 193.882 275.76 195.117 274.207Z" fill="black"/>
</g>
<path d="M178.86 276.435C178.911 276.104 179.993 275.493 180.248 275.302C181.483 274.398 182.921 273.672 184.411 273.227C186.053 272.73 187.721 272.781 189.401 272.527C189.719 272.476 190.05 272.412 190.279 272.196C190.547 271.954 190.61 271.559 190.61 271.203C190.61 270.833 190.496 270.439 190.228 270.172C189.388 269.344 187.402 269.904 186.397 270.133C183.163 270.872 179.471 272.87 178.86 276.435Z" fill="#0A060A"/>
<path d="M206.549 272.297C206.549 272.539 206.536 272.781 206.523 273.023V273.15C206.523 273.418 206.498 273.685 206.485 273.952C205.581 273.571 204.741 273.176 203.774 272.959C202.768 272.73 201.699 272.616 200.693 272.565C199.827 272.514 198.44 272.488 198.21 271.381C198.134 270.986 198.3 270.566 198.592 270.286C198.834 270.044 199.102 269.93 199.382 269.879C199.814 269.79 200.285 269.879 200.744 269.93C202.475 270.133 204.346 270.541 205.772 271.623C205.925 271.737 206.294 272.005 206.549 272.297Z" fill="#0A060A"/>
<path d="M185.696 290.998L198.439 291.431C198.439 291.431 194.073 297.249 185.696 290.998Z" fill="white"/>
<path d="M181.547 277.861C183.265 275.009 187.925 274.309 190.063 277.059C187.072 276.104 184.449 276.6 181.547 277.861Z" fill="#0A060A"/>
<path d="M186.333 279.478C187.402 279.478 188.268 278.611 188.268 277.543C188.268 276.474 187.402 275.608 186.333 275.608C185.265 275.608 184.398 276.474 184.398 277.543C184.398 278.611 185.265 279.478 186.333 279.478Z" fill="#0A060A"/>
<path d="M198.999 277.542C200.374 274.844 204.715 275.111 206.167 277.644C203.735 276.842 201.418 276.499 198.999 277.542Z" fill="#0A060A"/>
<path d="M202.411 279.694C203.48 279.694 204.346 278.828 204.346 277.759C204.346 276.69 203.48 275.824 202.411 275.824C201.343 275.824 200.476 276.69 200.476 277.759C200.476 278.828 201.343 279.694 202.411 279.694Z" fill="#0A060A"/>
<path d="M234.045 361.256C234.045 361.256 232.34 371.937 230.405 382.847C229.921 385.558 229.437 388.282 228.953 390.854C228.762 391.86 228.571 392.84 228.393 393.782C227.617 397.792 226.891 401.229 226.305 403.406C226.267 403.546 226.242 403.66 226.204 403.788C226.013 404.526 225.809 405.099 225.656 405.455C225.656 405.455 222.397 397.461 217.98 386.424C217.547 385.354 217.089 384.234 216.643 383.101V383.063C207.185 359.474 193.831 325.344 194.455 322.773L200.298 328.45L203.468 331.544L224.141 351.645L234.045 361.256Z" fill="#F1742B"/>
<path d="M234.045 361.256C234.045 361.256 232.34 371.937 230.405 382.847C229.921 385.558 229.437 388.282 228.953 390.854C228.762 391.86 228.571 392.84 228.393 393.782C227.617 397.792 226.891 401.229 226.306 403.406C226.267 403.546 226.242 403.66 226.204 403.788C226.013 404.526 225.809 405.099 225.656 405.455C225.656 405.455 222.397 397.461 217.98 386.424L218.133 385.558L218.362 384.323L221.073 368.945L221.455 366.768L222.232 362.402L224.141 351.645L234.045 361.256Z" fill="#F8C5A8"/>
<g opacity="0.4">
<g style="mix-blend-mode:soft-light" opacity="0.7">
<path d="M230.405 382.847C229.921 385.558 229.437 388.282 228.954 390.854C228.763 391.86 228.572 392.84 228.394 393.782C227.617 397.792 226.891 401.229 226.306 403.406C224.574 399.625 222.461 395.042 220.132 389.937C219.737 389.072 219.304 388.168 218.897 387.264C218.668 386.742 218.426 386.233 218.184 385.711V385.673L218.133 385.558L200.298 328.451L203.468 331.544C207.656 336.738 215.027 346.999 222.232 362.402C222.627 363.242 223.009 364.095 223.403 364.961C223.811 365.865 224.218 366.794 224.625 367.736C226.624 372.37 228.572 377.411 230.405 382.847Z" fill="black"/>
</g>
</g>
<path d="M231.067 449.158H124.311L126.45 437.561L132.561 404.335L177.32 312.22C218.744 323.88 228.355 407.39 230.494 437.981C230.99 444.945 231.08 449.171 231.08 449.171L231.067 449.158Z" fill="#F1742B"/>
<g opacity="0.4">
<g style="mix-blend-mode:soft-light" opacity="0.7">
<path d="M198.669 352.129C197.447 362.504 194.926 372.688 192.431 382.834C191.196 387.862 189.948 392.904 188.714 397.932C187.059 404.628 185.404 411.35 183.074 417.855C182.578 419.242 182.005 420.681 180.885 421.623C178.173 423.876 173.819 422.196 170.675 423.812C167.747 425.327 166.907 429.057 166.41 432.329C166.13 434.124 165.863 435.919 165.57 437.714C164.985 441.533 164.399 445.339 163.801 449.158H157.55C156.035 445.454 154.979 441.596 154.279 437.663C152.484 427.682 153.107 417.18 155.259 407.225C158.479 392.242 164.921 378.187 171.261 364.222C177.6 350.27 183.927 336.14 186.893 321.105L187.975 320.838C193.195 323.537 196.657 328.922 198.147 334.612C199.636 340.302 199.356 346.298 198.669 352.141V352.129Z" fill="black"/>
</g>
</g>
<path d="M153.578 498.691C153.578 498.691 132.242 466.866 128.716 430.992C128.716 430.992 127.048 417.46 128.64 408.549C128.818 407.518 129.06 406.563 129.327 405.697L161.153 412.139C160.669 412.139 158.785 422.03 158.683 422.654C157.703 428.981 158.021 435.499 158.836 441.978C159.612 448.305 160.834 454.607 161.751 460.705C163.24 470.545 164.781 480.36 166.359 490.175C166.563 491.524 166.792 492.874 167.009 494.223" fill="#C77E63"/>
<g opacity="0.7">
<g style="mix-blend-mode:soft-light" opacity="0.7">
<path d="M158.836 441.966C157.766 439 156.544 436.097 155.029 433.335C152.025 427.848 147.099 423.443 142.477 419.319C138.111 415.411 133.477 411.821 128.627 408.549C128.805 407.518 129.047 406.563 129.314 405.697L161.14 412.139C160.656 412.139 158.772 422.03 158.67 422.654C157.69 428.981 158.008 435.499 158.823 441.978L158.836 441.966Z" fill="black"/>
</g>
</g>
<path d="M196.377 348.119L178.86 406.346L175.474 417.6L115.489 403.966L119.436 392.763L141.472 330.182C145.647 318.343 156.761 310.883 168.714 310.883C171.566 310.883 174.443 311.316 177.295 312.194C192.431 316.904 200.947 332.919 196.364 348.106L196.377 348.119Z" fill="#F1742B"/>
<path d="M178.873 406.359L175.487 417.613L115.489 403.979L119.448 392.776L178.873 406.359Z" fill="#F8C5A8"/>
</g>
<path d="M488.662 428.942H5.37339C3.8407 428.942 2.59821 430.185 2.59821 431.718C2.59821 433.25 3.8407 434.493 5.37339 434.493H488.662C490.195 434.493 491.438 433.25 491.438 431.718C491.438 430.185 490.195 428.942 488.662 428.942Z" fill="#4097FF"/>
</g>
</g>
<defs>
<clipPath id="clip0_2173_12232">
<rect width="496" height="496" fill="white"/>
</clipPath>
</defs>
</svg>